<?xml version="1.0" standalone="no"?>
<!DOCTYPE svg PUBLIC "-//W3C//DTD SVG 20010904//EN"
 "http://www.w3.org/TR/2001/REC-SVG-20010904/DTD/svg10.dtd">
<svg version="1.0" xmlns="http://www.w3.org/2000/svg"
 width="736.000000pt" height="736.000000pt" viewBox="0 0 736.000000 736.000000"
 preserveAspectRatio="xMidYMid meet">
<metadata>
Created by potrace 1.16, written by Peter Selinger 2001-2019
</metadata>
<g transform="translate(0.000000,736.000000) scale(0.100000,-0.100000)"
fill="#000000" stroke="none">
<path d="M1612 2092 c-10 -10 -48 -95 -85 -188 -112 -285 -111 -282 -50 -280
34 1 38 5 60 54 l23 52 98 0 99 0 26 -60 c23 -54 28 -60 56 -60 20 0 34 7 41
21 9 17 -3 55 -71 226 -46 113 -92 216 -102 229 -23 29 -69 32 -95 6z m87
-202 c17 -46 31 -85 31 -87 0 -2 -31 -3 -70 -3 -45 0 -70 4 -70 11 0 29 65
188 71 176 4 -7 22 -51 38 -97z"/>
<path d="M2010 2091 c-12 -24 -4 -44 67 -153 l44 -70 -65 -100 c-68 -103 -79
-140 -48 -156 31 -17 60 6 118 93 l57 85 60 -90 c52 -78 64 -90 88 -90 65 0
54 50 -41 190 -22 32 -40 61 -40 64 0 3 27 47 60 98 61 94 69 115 48 136 -30
30 -56 14 -113 -74 -31 -48 -59 -83 -62 -80 -4 3 -29 41 -57 84 -40 60 -57 78
-78 80 -19 2 -30 -3 -38 -17z"/>
<path d="M2536 2094 c-14 -13 -16 -48 -16 -232 0 -119 4 -222 8 -228 10 -16
71 -12 82 6 5 8 10 110 10 227 0 225 -4 243 -50 243 -10 0 -26 -7 -34 -16z"/>
<path d="M4162 2098 c-15 -15 -17 -445 -2 -468 7 -12 37 -16 135 -19 182 -5
222 8 195 60 -10 17 -22 19 -128 19 l-117 0 0 193 c0 207 -4 227 -49 227 -12
0 -27 -5 -34 -12z"/>
<path d="M4652 2098 c-17 -17 -17 -459 0 -476 22 -22 68 -15 77 12 15 38 13
417 -2 446 -14 28 -55 38 -75 18z"/>
<path d="M4895 2086 c-15 -22 -12 -34 60 -226 41 -112 82 -214 90 -227 22 -32
88 -33 109 0 8 12 49 114 90 226 72 194 75 206 60 228 -11 18 -23 23 -42 21
-26 -3 -30 -13 -93 -197 -36 -107 -68 -191 -71 -185 -3 5 -29 81 -58 169 -29
88 -59 172 -67 188 -17 35 -56 37 -78 3z"/>
<path d="M972 2088 c-36 -36 2 -68 84 -68 l64 0 0 -190 c0 -177 1 -191 20
-210 24 -24 29 -24 58 -4 21 15 22 20 22 209 l0 194 71 3 c55 2 74 7 83 21 8
12 8 22 0 35 -10 15 -33 17 -200 20 -139 2 -193 -1 -202 -10z"/>
<path d="M3056 2084 c-14 -13 -16 -47 -16 -214 0 -109 4 -210 9 -223 9 -23 16
-26 104 -32 122 -9 193 5 236 47 49 47 64 85 69 168 7 127 -28 207 -108 248
-38 19 -60 22 -161 22 -94 0 -121 -3 -133 -16z m243 -79 c39 -20 61 -71 61
-144 0 -73 -17 -120 -55 -149 -22 -18 -41 -22 -96 -22 l-69 0 0 165 0 165 65
0 c38 0 78 -6 94 -15z"/>
<path d="M3630 2081 c-13 -26 -13 -416 0 -441 8 -15 18 -18 48 -14 46 7 215 7
262 0 52 -8 75 18 44 48 -12 13 -40 16 -140 16 l-124 0 0 70 0 69 116 3 c95 2
119 6 127 19 6 9 7 24 4 33 -5 14 -25 16 -127 16 l-120 0 0 65 0 64 133 3
c131 3 132 3 135 27 2 13 -2 28 -10 32 -7 5 -86 9 -175 9 -150 0 -163 -1 -173
-19z"/>
<path d="M5470 2081 c-6 -12 -10 -104 -10 -229 0 -190 2 -210 18 -225 16 -14
43 -17 171 -17 158 0 191 7 191 40 0 32 -33 40 -159 40 l-121 0 0 70 0 69 116
3 c95 2 119 6 127 19 6 9 7 24 4 33 -5 14 -25 16 -127 16 l-120 0 0 65 0 64
133 3 c131 3 132 3 135 27 2 13 -2 28 -10 32 -7 5 -86 9 -175 9 -150 0 -163
-1 -173 -19z"/>
<path d="M6002 2088 c-9 -9 -12 -75 -12 -234 0 -189 2 -225 16 -238 21 -21 40
-20 64 4 17 17 20 33 20 110 l0 90 34 0 c47 0 83 -33 141 -129 27 -45 57 -83
67 -87 26 -8 56 4 63 26 8 26 -38 111 -87 164 -21 21 -38 40 -38 42 0 1 13 5
29 9 73 16 112 114 73 185 -32 59 -67 70 -222 70 -93 0 -140 -4 -148 -12z
m269 -87 c24 -29 24 -53 1 -81 -16 -20 -31 -24 -100 -28 l-82 -5 0 73 0 72 81
-4 c70 -3 83 -6 100 -27z"/>
</g>
</svg>
